<svg xmlns="http://www.w3.org/2000/svg" xmlns:xlink="http://www.w3.org/1999/xlink" version="1.1" x="0px" y="0px" viewBox="0 0 100 125" style="enable-background:new 0 0 100 100;" xml:space="preserve">
  <path d="M95.747,14.448l0.003-6.434c0-0.415-0.335-0.75-0.75-0.75c-0.414,0-0.75,0.335-0.75,0.75l-0.003,6.434l0,0v0   c0,3.756-3.027,6.813-6.748,6.813c-3.723,0-6.751-3.056-6.751-6.813V8.012c0-0.414-0.336-0.75-0.75-0.75s-0.75,0.336-0.75,0.75   v6.436c0,3.756-3.028,6.813-6.751,6.813c-3.718,0-6.743-3.056-6.743-6.813V8.014c0-0.414-0.336-0.75-0.75-0.75   s-0.75,0.336-0.75,0.75v6.434c0,3.756-3.027,6.813-6.748,6.813c-3.724,0-6.754-3.057-6.754-6.815V8.014   c0-0.414-0.336-0.75-0.75-0.75s-0.75,0.336-0.75,0.75v6.431c0,3.758-3.028,6.815-6.751,6.815c-3.722,0-6.749-3.056-6.749-6.813   V8.014c0-0.414-0.336-0.75-0.75-0.75s-0.75,0.336-0.75,0.75v6.434c0,3.756-3.028,6.813-6.75,6.813   c-1.803,0-3.497-0.708-4.772-1.994c-1.276-1.287-1.979-2.999-1.978-4.819L20.75,8.014c0-0.415-0.336-0.75-0.75-0.75   s-0.75,0.336-0.75,0.75l0.002,6.433c-0.002,3.757-3.028,6.813-6.747,6.813c-3.725,0-6.755-3.057-6.755-6.815V8.014   c0-0.414-0.336-0.75-0.75-0.75S4.25,7.6,4.25,8.014v6.431c0,4.327,3.299,7.889,7.497,8.276l0.003,5.723   c0,1.822-0.702,3.533-1.978,4.819c-1.273,1.284-2.966,1.991-4.767,1.991c-0.004,0-0.006,0-0.006,0c-0.414,0-0.75,0.335-0.75,0.75   l0,0l0,0v6.437c0,4.327,3.301,7.889,7.5,8.274l-0.003,5.723c0.002,1.82-0.699,3.531-1.975,4.817C8.498,62.54,6.804,63.248,5,63.248   c-0.414,0-0.75,0.336-0.75,0.75v6.431c0,4.326,3.301,7.887,7.5,8.275v5.724c-0.004,3.755-3.031,6.811-6.75,6.811   c-0.414,0-0.75,0.336-0.75,0.75s0.336,0.75,0.75,0.75c3.325,0,6.192-2,7.496-4.865c0.404,0.891,0.959,1.716,1.667,2.43   c1.56,1.57,3.632,2.436,5.837,2.436c3.326,0,6.194-1.999,7.498-4.865c0.404,0.891,0.959,1.715,1.667,2.429   c1.559,1.57,3.631,2.436,5.834,2.436c3.327,0,6.195-1.999,7.499-4.865c0.404,0.891,0.959,1.716,1.667,2.429   c1.56,1.57,3.632,2.436,5.837,2.436c3.329,0,6.196-2.001,7.499-4.869c1.301,2.868,4.166,4.869,7.492,4.869   c2.207,0,4.28-0.865,5.84-2.436c0.708-0.714,1.263-1.538,1.667-2.429c1.305,2.865,4.174,4.865,7.502,4.865   c3.326,0,6.192-2.001,7.493-4.869c1.302,2.868,4.171,4.869,7.501,4.869c0.414,0,0.75-0.336,0.75-0.75s-0.336-0.75-0.75-0.75   c-3.723,0-6.751-3.056-6.751-6.813v-5.722c1.911-0.17,3.69-0.996,5.068-2.375c1.571-1.572,2.437-3.667,2.435-5.897v-6.434   c0-0.414-0.336-0.75-0.75-0.75l-0.001,0l-0.001,0c-3.723,0-6.751-3.056-6.751-6.812v-5.721c4.198-0.38,7.503-3.943,7.506-8.275   l-0.003-6.434c0-0.105-0.022-0.204-0.061-0.295c-0.114-0.269-0.38-0.458-0.691-0.458c0,0-0.002,0-0.006,0   c-1.8,0-3.493-0.707-4.767-1.991c-1.276-1.287-1.979-2.998-1.979-4.818v-5.722C92.444,22.34,95.747,18.777,95.747,14.448z    M79.998,17.89c1.203,2.649,3.741,4.555,6.746,4.831v5.723c0,3.754-3.026,6.81-6.746,6.813c-3.724,0-6.753-3.056-6.753-6.813   l0.002-5.722C76.254,22.447,78.795,20.54,79.998,17.89z M72.497,77.242c-3.718,0-6.743-3.057-6.743-6.813v-5.72   c3.004-0.278,5.541-2.184,6.743-4.831c1.203,2.65,3.744,4.557,6.751,4.831v5.723c0.001,1.821-0.701,3.532-1.977,4.818   C75.997,76.535,74.301,77.242,72.497,77.242z M57.506,77.242c-3.724-0.002-6.754-3.058-6.754-6.813v-5.719   c3.006-0.275,5.545-2.181,6.749-4.83c1.204,2.652,3.746,4.56,6.753,4.831v5.719C64.254,74.184,61.227,77.24,57.506,77.242z    M42.501,77.242c-3.722-0.002-6.749-3.058-6.749-6.813v-5.719c3.006-0.275,5.545-2.181,6.747-4.831   c1.204,2.65,3.745,4.556,6.753,4.831v5.719C49.252,74.184,46.224,77.24,42.501,77.242z M27.502,77.242   c-3.723-0.002-6.752-3.058-6.752-6.813v-5.719c3.006-0.275,5.546-2.181,6.749-4.831c1.204,2.65,3.745,4.556,6.753,4.831v5.719   C34.252,74.186,31.224,77.242,27.502,77.242z M13.25,50.714c3.006-0.275,5.547-2.182,6.75-4.832   c1.203,2.651,3.744,4.558,6.752,4.832l-0.003,5.722c0,3.756-3.027,6.812-6.749,6.812c-3.721,0-6.75-3.056-6.754-6.811L13.25,50.714   z M64.992,63.248c-3.717,0-6.741-3.056-6.741-6.812l0.002-5.722c3.007-0.275,5.547-2.181,6.751-4.831   c1.202,2.65,3.739,4.556,6.742,4.831l0.002,5.722C71.747,60.192,68.717,63.248,64.992,63.248z M50.002,63.248   c-3.724,0-6.753-3.056-6.753-6.812l0.002-5.723c1.92-0.172,3.705-1.006,5.085-2.398c0.708-0.714,1.264-1.538,1.668-2.429   c1.204,2.648,3.743,4.554,6.749,4.828l-0.002,5.722C56.751,60.192,53.724,63.248,50.002,63.248z M35.002,63.248   c-3.724,0-6.753-3.056-6.753-6.811l0.003-5.722c3.005-0.274,5.544-2.179,6.748-4.828c0.404,0.891,0.959,1.715,1.667,2.429   c1.381,1.392,3.164,2.225,5.084,2.398l-0.002,5.723C41.749,60.192,38.723,63.248,35.002,63.248z M72.495,49.252   c-3.717,0-6.741-3.056-6.741-6.813v-5.725c3.003-0.278,5.539-2.183,6.741-4.829c1.203,2.651,3.745,4.558,6.753,4.833v5.719   C79.248,46.195,76.219,49.252,72.495,49.252z M64.254,42.44c0,3.756-3.028,6.813-6.751,6.813s-6.751-3.056-6.751-6.813v-5.723   c1.92-0.173,3.703-1.008,5.084-2.398c0.708-0.714,1.264-1.537,1.668-2.428c1.205,2.65,3.746,4.555,6.75,4.826V42.44z M49.252,42.44   c0,1.821-0.703,3.532-1.98,4.819c-1.274,1.284-2.966,1.991-4.767,1.991c-0.002,0-0.005,0-0.01,0c-1.798,0-3.49-0.707-4.764-1.991   c-1.276-1.287-1.979-2.998-1.979-4.819v-5.725c3.004-0.275,5.542-2.179,6.747-4.825c0.404,0.891,0.959,1.716,1.667,2.429   c1.38,1.392,3.165,2.225,5.087,2.398V42.44z M34.252,42.44c0,3.756-3.028,6.813-6.75,6.813c-3.723,0-6.752-3.056-6.752-6.813   v-5.723c1.921-0.172,3.705-1.006,5.086-2.398c0.707-0.712,1.262-1.535,1.666-2.424c0.404,0.889,0.957,1.712,1.663,2.424   c1.38,1.392,3.166,2.226,5.087,2.398V42.44z M79.998,63.248c-3.723,0-6.751-3.056-6.751-6.812l-0.002-5.722   c3.008-0.275,5.549-2.182,6.753-4.834c1.203,2.649,3.741,4.556,6.746,4.834v5.722C86.744,60.192,83.718,63.248,79.998,63.248z    M65.004,17.891c1.202,2.649,3.74,4.556,6.743,4.831l-0.002,5.722c0,3.755-3.029,6.81-6.753,6.81c-3.716,0-6.739-3.055-6.741-6.81   v-5.722C61.258,22.449,63.8,20.542,65.004,17.891z M50.002,17.888c1.203,2.65,3.743,4.557,6.749,4.833v5.723   c0.001,1.819-0.702,3.53-1.979,4.817c-1.275,1.284-2.969,1.992-4.771,1.992c-0.001,0-0.003,0-0.005,0   c-1.8,0-3.493-0.707-4.767-1.991c-1.275-1.286-1.979-2.998-1.979-4.819l-0.002-5.722C46.257,22.447,48.799,20.54,50.002,17.888z    M35.002,17.89c1.203,2.65,3.742,4.556,6.747,4.831l0.002,5.722c0,3.755-3.029,6.81-6.753,6.81c-0.001,0-0.003,0-0.005,0   c-1.799,0-3.49-0.707-4.763-1.991c-1.276-1.286-1.979-2.998-1.979-4.819l-0.003-5.722C31.257,22.448,33.798,20.541,35.002,17.89z    M19.999,17.894c0.404,0.891,0.958,1.715,1.666,2.428c1.38,1.391,3.164,2.227,5.084,2.401l0.003,5.721   c0,1.821-0.703,3.532-1.98,4.819c-1.273,1.284-2.967,1.991-4.767,1.991c-0.002,0-0.003,0-0.005,0c-3.722,0-6.75-3.055-6.75-6.81   l-0.003-5.721C16.252,22.45,18.794,20.544,19.999,17.894z M5.75,42.44v-5.723c1.923-0.172,3.707-1.006,5.088-2.398   c0.707-0.713,1.261-1.537,1.665-2.428c1.204,2.646,3.743,4.55,6.747,4.824v5.725c0,3.754-3.027,6.81-6.747,6.813   C8.779,49.252,5.75,46.196,5.75,42.44z M5.75,70.429v-5.718c1.923-0.173,3.707-1.009,5.087-2.401   c0.707-0.713,1.261-1.537,1.664-2.427c1.206,2.648,3.746,4.552,6.749,4.827v5.719c0,3.756-3.023,6.811-6.741,6.813   c-0.003,0-0.006-0.002-0.009-0.002c-0.002,0-0.004,0.001-0.007,0.001C8.774,77.233,5.75,74.18,5.75,70.429z M20,91.238   c-1.802,0-3.497-0.708-4.771-1.992c-1.277-1.287-1.98-2.998-1.979-4.818v-5.724c3.007-0.273,5.547-2.181,6.75-4.833   c1.203,2.649,3.743,4.555,6.749,4.832l0.003,5.724C26.749,88.183,23.721,91.238,20,91.238z M34.999,91.238   c-1.801,0-3.494-0.708-4.769-1.992c-1.277-1.287-1.979-2.998-1.979-4.819l-0.003-5.723c3.008-0.274,5.549-2.181,6.753-4.833   c1.203,2.649,3.742,4.556,6.747,4.832l0.002,5.724C41.749,88.183,38.721,91.238,34.999,91.238z M50.002,91.238   c-1.802,0-3.497-0.708-4.772-1.992c-1.276-1.287-1.979-2.998-1.979-4.818l-0.002-5.724c3.008-0.275,5.549-2.183,6.753-4.833   c1.203,2.649,3.742,4.556,6.749,4.833v5.722C56.751,88.182,53.724,91.238,50.002,91.238z M69.767,89.246   c-1.274,1.285-2.971,1.992-4.774,1.992c-3.717,0-6.741-3.056-6.741-6.813v-5.722c3.007-0.274,5.549-2.181,6.752-4.832   c1.202,2.65,3.74,4.557,6.743,4.832l-0.002,5.724C71.746,86.249,71.043,87.96,69.767,89.246z M80.001,91.238   c-3.724,0-6.754-3.055-6.756-6.811l0.002-5.722c1.924-0.173,3.708-1.007,5.089-2.399c0.708-0.713,1.263-1.538,1.666-2.429   c1.205,2.645,3.741,4.548,6.742,4.824v5.724C86.744,88.182,83.719,91.238,80.001,91.238z M94.247,64.709v5.722v0   c0.001,1.831-0.707,3.548-1.996,4.836c-1.271,1.271-2.956,1.972-4.746,1.972c-0.003-0.001-0.005,0-0.007,0   c-3.72,0-6.747-3.054-6.75-6.809v-5.722c3.005-0.275,5.544-2.181,6.746-4.831C88.698,62.529,91.239,64.435,94.247,64.709z    M89.157,34.318c1.381,1.393,3.167,2.227,5.09,2.399l0.003,5.722c-0.003,3.757-3.03,6.813-6.748,6.813   c-3.724,0-6.754-3.058-6.754-6.815v-5.719c3.003-0.276,5.54-2.181,6.744-4.828C87.896,32.781,88.45,33.605,89.157,34.318z"/>
</svg>
